<?xml version="1.0" standalone="no"?>
<!DOCTYPE svg PUBLIC "-//W3C//DTD SVG 20010904//EN"
 "http://www.w3.org/TR/2001/REC-SVG-20010904/DTD/svg10.dtd">
<svg version="1.0" xmlns="http://www.w3.org/2000/svg"
 width="690.000000pt" height="690.000000pt" viewBox="0 0 690.000000 690.000000"
 preserveAspectRatio="xMidYMid meet">

<g transform="translate(0.000000,690.000000) scale(0.100000,-0.100000)"
fill="#000000" stroke="none">
<path d="M3126 5964 c-1143 -147 -2050 -1059 -2191 -2204 -20 -161 -20 -459 0
-620 142 -1152 1053 -2063 2205 -2205 161 -20 459 -20 620 0 1070 132 1942
930 2168 1985 53 246 68 586 37 840 -142 1151 -1054 2063 -2205 2205 -154 19
-482 18 -634 -1z m699 -183 c492 -83 913 -296 1267 -639 140 -136 219 -231
330 -397 182 -273 306 -596 365 -950 25 -155 25 -534 0 -690 -59 -358 -182
-677 -371 -959 -376 -562 -940 -921 -1621 -1033 -155 -25 -535 -25 -690 0
-256 42 -475 111 -690 217 -256 126 -457 272 -656 477 -350 361 -562 786 -646
1298 -25 155 -25 535 0 690 86 524 303 952 666 1316 150 150 229 216 377 312
325 213 685 339 1089 381 106 11 464 -3 580 -23z"/>
<path d="M3480 5635 c-80 -36 -113 -106 -114 -240 -1 -133 45 -215 130 -231
149 -28 242 163 133 274 -39 40 -92 51 -132 28 -17 -9 -32 -15 -34 -12 -10 9
10 76 29 96 26 27 69 24 83 -7 8 -19 18 -23 52 -23 48 0 53 11 29 59 -30 58
-112 84 -176 56z m84 -241 c31 -30 33 -107 5 -141 -20 -23 -67 -16 -86 14 -50
77 20 188 81 127z"/>
<path d="M3040 5609 c-46 -14 -88 -55 -100 -98 -16 -58 -14 -61 34 -61 40 0
44 2 49 29 16 78 104 82 123 6 7 -28 -1 -44 -82 -165 -59 -89 -97 -180 -81
-196 4 -4 64 3 135 15 181 32 172 29 172 60 0 52 -9 55 -99 39 -50 -9 -81 -11
-81 -5 0 6 18 34 40 63 52 69 78 120 85 169 15 101 -87 176 -195 144z"/>
<path d="M3836 5479 c-26 -61 -46 -112 -44 -113 30 -19 59 -23 95 -13 72 19
110 -24 90 -103 -20 -85 -107 -94 -131 -14 -7 22 -32 34 -74 34 -21 0 -23 -3
-17 -32 18 -82 79 -131 161 -130 131 3 204 144 135 258 -22 36 -83 68 -117 61
-28 -5 -30 3 -9 42 l14 29 78 -19 c43 -10 81 -15 85 -11 4 4 9 22 10 41 l3 33
-95 24 c-52 13 -104 23 -115 24 -17 0 -30 -21 -69 -111z"/>
<path d="M2595 5475 c-91 -47 -108 -166 -34 -250 56 -63 157 -68 196 -9 12 19
18 22 24 12 13 -20 11 -102 -3 -116 -17 -17 -63 -15 -78 3 -10 13 -17 12 -53
-7 l-41 -20 37 -34 c31 -28 44 -34 83 -34 86 0 154 70 154 158 0 76 -49 202
-99 255 -52 57 -124 73 -186 42z m102 -80 c13 -9 28 -33 34 -55 26 -86 -58
-125 -108 -51 -54 80 1 157 74 106z"/>
<path d="M4326 5429 c-16 -4 -40 -18 -53 -31 l-25 -23 33 -27 c32 -27 32 -27
58 -7 31 22 64 17 78 -14 21 -46 -23 -88 -76 -74 -13 3 -26 -5 -40 -24 -20
-27 -20 -28 -1 -34 54 -17 68 -84 26 -125 -48 -44 -107 -22 -110 41 -1 26 -8
35 -31 45 -49 21 -55 18 -55 -31 0 -79 42 -131 123 -153 67 -19 139 15 173 80
19 37 18 67 -6 106 l-20 32 26 0 c15 0 38 12 55 29 36 36 40 96 9 146 -31 50
-109 80 -164 64z"/>
<path d="M2270 5298 c-25 -18 -68 -49 -97 -70 l-52 -38 50 -107 c28 -59 52
-109 55 -112 11 -12 56 23 74 58 23 45 57 60 96 42 30 -13 64 -67 64 -102 0
-48 -55 -75 -99 -47 -15 9 -24 7 -49 -13 -17 -13 -31 -27 -31 -32 -1 -4 14
-16 32 -27 85 -52 206 6 231 113 15 63 -39 160 -104 187 -47 19 -116 7 -151
-26 -16 -15 -30 -26 -33 -23 -8 9 -26 48 -26 57 0 5 29 29 65 53 35 24 65 49
65 54 0 6 -10 23 -23 38 l-22 28 -45 -33z"/>
<path d="M4652 5139 c-50 -44 -92 -84 -92 -88 0 -17 48 -51 74 -51 30 0 76
-39 76 -65 0 -25 -28 -72 -52 -89 -54 -38 -115 -4 -105 57 4 29 1 35 -29 55
-18 12 -36 22 -38 22 -3 0 -11 -18 -17 -40 -10 -33 -9 -47 5 -85 66 -172 318
-120 318 66 0 56 -26 100 -72 119 -36 15 -37 19 -1 47 l28 22 61 -50 c33 -27
65 -49 70 -49 9 0 56 60 50 64 -5 3 -90 70 -138 108 l-45 37 -93 -80z"/>
<path d="M3290 5019 c-359 -37 -696 -198 -954 -455 -454 -454 -586 -1124 -340
-1723 130 -315 380 -596 684 -766 389 -218 844 -260 1270 -119 600 199 1015
730 1070 1370 67 761 -442 1465 -1194 1654 -177 44 -354 57 -536 39z m440
-149 c295 -60 526 -184 741 -399 214 -215 336 -440 400 -741 18 -86 22 -137
22 -280 0 -189 -17 -303 -69 -460 -108 -322 -345 -613 -644 -791 -230 -136
-538 -211 -805 -195 -370 22 -684 163 -946 425 -213 214 -336 442 -400 741
-32 150 -32 410 0 560 60 283 181 515 374 716 236 247 542 402 875 443 117 15
331 6 452 -19z"/>
<path d="M2973 4390 c-145 -16 -229 -64 -321 -185 -50 -66 -133 -224 -163
-308 -13 -36 -12 -40 6 -53 35 -26 56 -16 124 59 169 186 197 203 340 214 l91
6 0 -51 c0 -94 -30 -423 -50 -551 -40 -248 -82 -367 -218 -610 -110 -196 -122
-268 -58 -340 93 -104 252 -43 322 124 81 195 136 557 172 1146 l17 274 254 3
254 2 -7 -77 c-3 -43 -13 -145 -21 -228 -79 -826 -21 -1156 223 -1277 66 -32
169 -32 232 1 101 53 201 189 234 317 21 81 21 197 1 214 -19 16 -43 6 -54
-22 -59 -153 -111 -208 -197 -208 -70 0 -151 75 -182 168 -24 75 -28 471 -7
814 9 156 19 286 22 291 2 4 101 7 219 7 l214 0 0 140 0 140 -687 -1 c-379 -1
-720 -5 -760 -9z"/>
<path d="M1877 4982 c-23 -24 -25 -32 -18 -64 5 -20 4 -59 -1 -88 -8 -47 -7
-55 13 -76 12 -13 26 -24 30 -24 10 0 29 57 29 86 0 13 5 24 10 24 6 0 62 -50
125 -112 l116 -111 29 28 c17 16 30 32 30 35 0 4 -76 79 -169 168 l-168 161
-26 -27z"/>
<path d="M4993 4870 c-38 -23 -53 -48 -53 -88 0 -30 -1 -30 -34 -20 -28 9 -41
7 -78 -10 -52 -26 -78 -66 -78 -122 0 -79 44 -139 121 -161 81 -25 169 39 169
121 l0 35 44 -3 c37 -3 49 1 76 25 47 42 52 102 12 164 -47 73 -118 97 -179
59z m112 -90 c22 -24 14 -65 -16 -81 -52 -27 -106 29 -74 77 19 30 65 32 90 4z
m-153 -107 c28 -25 24 -77 -8 -102 -76 -60 -158 29 -88 94 31 29 70 32 96 8z"/>
<path d="M1594 4629 c-16 -31 -15 -32 62 -194 57 -121 84 -167 105 -179 15 -9
32 -16 37 -16 6 0 31 36 56 80 l46 80 33 -20 c43 -27 54 -25 72 10 21 40 20
44 -20 63 -34 16 -45 39 -25 52 18 11 11 24 -22 41 -30 16 -32 15 -48 -6 l-17
-23 -125 71 c-69 40 -128 72 -131 72 -4 0 -14 -14 -23 -31z m176 -155 c65 -38
65 -36 22 -103 -16 -23 -16 -23 -53 50 -37 72 -44 89 -35 89 3 0 32 -16 66
-36z"/>
<path d="M5195 4507 c-52 -29 -85 -79 -85 -129 0 -47 23 -94 50 -103 32 -10
23 -23 -22 -36 -71 -19 -117 21 -88 77 11 19 9 28 -10 59 -25 40 -38 36 -66
-16 -34 -67 -5 -152 66 -191 103 -56 343 53 379 172 39 129 -103 235 -224 167z
m123 -73 c64 -44 -27 -153 -104 -124 -28 11 -40 50 -24 80 6 12 30 30 53 41
51 23 48 22 75 3z"/>
<path d="M1380 4194 c-13 -33 -14 -29 14 -72 14 -20 30 -59 37 -85 12 -48 33
-67 74 -67 15 0 13 34 -5 93 -5 15 -6 27 -2 27 4 0 75 -22 157 -50 82 -27 152
-50 155 -50 10 0 30 74 22 81 -8 7 -423 149 -435 149 -4 0 -12 -12 -17 -26z"/>
<path d="M5483 4123 c-28 -5 -28 -1 -2 -108 11 -48 19 -89 16 -91 -2 -2 -30 5
-62 17 -78 27 -207 44 -278 35 l-58 -8 7 -36 c4 -20 8 -39 10 -41 2 -2 50 -3
107 -2 114 2 211 -15 279 -50 49 -25 113 -20 104 9 -3 9 -17 69 -31 132 -38
168 -29 155 -92 143z"/>
<path d="M1666 3775 c-3 -9 -6 -29 -6 -45 0 -24 5 -29 36 -35 43 -8 49 -2 58
48 5 28 4 37 -7 37 -8 0 -28 3 -44 6 -23 4 -32 2 -37 -11z"/>
<path d="M5405 3661 c-47 -28 -66 -56 -72 -101 -5 -33 -1 -48 17 -72 l23 -31
-42 6 c-60 8 -91 31 -91 67 0 23 6 33 25 42 22 10 24 15 18 52 -3 23 -7 42 -8
44 -8 9 -76 -30 -90 -51 -56 -86 -4 -207 102 -236 55 -16 182 -13 240 4 60 18
109 67 119 120 10 53 -19 120 -64 150 -46 32 -131 35 -177 6z m147 -88 c23
-21 23 -55 -1 -77 -29 -26 -95 -32 -126 -12 -33 21 -34 68 -3 90 30 21 106 21
130 -1z"/>
<path d="M1553 3613 c-12 -2 -35 -19 -52 -38 l-29 -33 -23 24 c-53 56 -142 36
-179 -41 -24 -49 -25 -83 -6 -130 26 -60 116 -100 116 -51 0 13 3 31 6 40 4
10 1 16 -9 16 -25 0 -47 29 -47 61 0 63 94 63 106 -1 4 -16 12 -30 18 -30 6 0
21 -3 34 -6 20 -6 22 -3 22 28 0 44 26 68 73 68 77 0 103 -76 39 -115 -30 -18
-32 -23 -27 -60 3 -21 7 -41 9 -43 8 -7 72 27 92 49 98 110 -1 290 -143 262z"/>
<path d="M5213 3260 c-89 -54 -103 -175 -29 -248 29 -30 43 -36 88 -40 49 -4
56 -2 84 27 l31 31 13 -26 c16 -30 58 -54 93 -54 68 0 137 99 123 176 -8 39
-62 104 -88 104 -17 0 -43 -73 -28 -78 57 -20 48 -112 -11 -112 -26 0 -59 35
-59 64 0 18 -8 27 -31 35 -41 14 -39 15 -39 -17 0 -61 -79 -84 -125 -37 -14
13 -25 33 -25 45 0 26 34 60 60 60 14 0 20 7 20 23 0 12 3 32 6 45 6 19 3 22
-22 22 -16 0 -43 -9 -61 -20z"/>
<path d="M1717 3077 c-37 -9 -37 -10 -31 -46 9 -49 14 -52 58 -40 37 10 38 12
33 46 -8 47 -15 52 -60 40z"/>
<path d="M5052 2817 c-28 -73 -54 -139 -57 -148 -5 -12 2 -20 26 -28 18 -6 35
-11 39 -11 4 0 23 37 41 82 l33 81 17 -39 c75 -164 82 -176 121 -204 62 -45
118 -42 168 8 44 43 66 104 56 155 -7 35 -54 97 -75 97 -6 0 -19 -17 -30 -37
l-19 -38 24 -18 c46 -35 21 -107 -38 -107 -35 0 -80 53 -107 125 -29 77 -55
126 -87 164 -54 65 -56 64 -112 -82z"/>
<path d="M1770 2896 c-19 -7 -35 -17 -35 -22 1 -24 17 -74 24 -74 8 0 74 21
79 26 5 4 -21 84 -27 83 -3 0 -22 -6 -41 -13z"/>
<path d="M1837 2719 l-37 -20 20 -39 c11 -22 23 -40 26 -40 5 0 66 30 72 35 3
3 -36 85 -41 85 -1 -1 -19 -10 -40 -21z"/>
<path d="M4921 2528 c-50 -27 -91 -90 -91 -140 0 -43 24 -91 61 -122 28 -24
40 -27 74 -23 22 3 48 8 58 12 10 4 17 4 16 -1 -5 -31 5 -59 30 -85 58 -57
160 -30 200 55 26 53 26 76 0 127 -22 44 -33 46 -62 7 -16 -21 -17 -29 -7 -48
26 -48 -14 -99 -64 -80 -30 11 -42 49 -26 79 9 18 7 25 -17 45 -25 22 -29 23
-37 8 -26 -50 -75 -55 -117 -13 -34 35 -37 63 -8 92 15 15 30 20 56 17 31 -4
36 -1 54 33 21 42 19 46 -37 54 -30 5 -49 1 -83 -17z"/>
<path d="M1849 2513 c-35 -21 -59 -63 -59 -102 0 -30 0 -31 -43 -25 -39 6 -48
3 -80 -26 -47 -41 -56 -83 -29 -142 21 -49 73 -97 105 -99 38 -2 71 3 89 12
21 11 48 60 48 88 0 18 5 19 53 15 64 -6 105 16 131 71 35 73 0 172 -74 210
-38 20 -108 19 -141 -2z m131 -83 c46 -46 2 -124 -68 -118 -68 6 -79 87 -15
122 38 21 59 20 83 -4z m-174 -145 c32 -49 -22 -104 -74 -76 -29 16 -37 48
-18 76 23 34 70 34 92 0z"/>
<path d="M4685 2238 c-61 -21 -115 -90 -115 -148 0 -79 46 -131 123 -138 53
-4 53 -4 49 -36 -4 -38 27 -83 73 -102 98 -40 225 89 184 187 -15 38 -63 69
-104 69 -29 0 -30 1 -30 49 0 56 -26 93 -82 117 -37 16 -56 16 -98 2z m89
-109 c32 -37 33 -56 4 -86 -26 -28 -57 -29 -91 -3 -55 44 -38 120 27 120 26 0
41 -8 60 -31z m130 -142 c21 -16 24 -60 6 -82 -16 -20 -59 -19 -82 2 -52 47
19 122 76 80z"/>
<path d="M2099 2207 c-46 -31 -61 -63 -55 -114 l6 -43 -35 0 c-24 0 -45 -9
-67 -29 -29 -26 -33 -36 -33 -79 0 -106 104 -178 198 -138 40 16 40 22 4 68
-12 15 -18 16 -45 6 -27 -10 -34 -9 -51 7 -41 36 -14 101 38 92 14 -2 33 -7
42 -11 9 -4 25 1 39 12 l23 18 -28 28 c-21 21 -26 33 -21 54 9 35 50 72 82 72
47 0 78 -55 55 -99 -7 -13 -2 -22 25 -40 44 -30 56 -20 62 51 3 44 0 59 -20
88 -54 80 -149 104 -219 57z"/>
<path d="M2431 1973 c-62 -31 -92 -119 -56 -169 13 -20 12 -22 -26 -33 -138
-42 -75 -241 76 -241 35 0 105 33 105 49 0 4 -11 18 -25 31 -23 22 -26 22 -56
7 -40 -19 -71 -9 -83 26 -15 40 17 71 66 64 31 -4 40 -1 54 20 16 25 15 26
-15 50 -39 30 -41 69 -6 107 47 51 125 18 113 -48 -4 -20 1 -27 34 -42 21 -9
41 -14 45 -10 4 3 7 28 7 55 0 113 -127 186 -233 134z"/>
<path d="M4441 1924 l-75 -45 -18 23 c-10 13 -20 31 -23 40 -6 17 -9 16 -46
-2 -21 -11 -39 -22 -39 -25 0 -2 10 -20 22 -41 l21 -36 -22 -18 c-23 -16 -23
-18 -6 -49 12 -24 21 -31 33 -26 9 4 22 9 28 12 7 2 43 -51 84 -121 39 -69 74
-126 76 -126 3 0 18 7 34 15 32 17 33 19 50 250 8 115 7 133 -8 159 -9 16 -22
31 -27 32 -6 1 -44 -18 -84 -42z m42 -213 l-8 -30 -37 64 -36 64 41 25 42 24
3 -58 c2 -32 -1 -72 -5 -89z"/>
<path d="M2804 1832 c-22 -67 -25 -71 -54 -66 -24 5 -29 2 -39 -27 -12 -34 -4
-48 27 -49 17 0 17 0 -34 -153 -25 -76 -44 -140 -43 -142 2 -2 20 -6 39 -10
33 -6 44 0 177 101 114 86 145 114 154 142 14 42 13 42 -93 77 l-77 26 15 41
c16 46 14 50 -34 66 -28 10 -34 9 -38 -6z m87 -194 c22 -6 39 -14 39 -18 0 -8
-132 -111 -137 -107 -6 7 42 137 50 137 5 0 27 -5 48 -12z"/>
<path d="M3962 1811 c-91 -57 -97 -193 -13 -264 58 -49 124 -47 172 4 l27 29
7 -49 c8 -56 -7 -88 -43 -98 -17 -4 -30 1 -45 15 l-20 21 -40 -20 -39 -21 28
-29 c58 -61 141 -59 203 5 41 42 52 91 40 170 -12 79 -70 198 -111 227 -44 32
-123 36 -166 10z m113 -85 c13 -13 27 -40 31 -60 5 -31 2 -41 -17 -62 -12 -13
-28 -24 -34 -24 -25 0 -65 42 -76 80 -10 33 -9 43 5 65 21 32 59 33 91 1z"/>
<path d="M3635 1738 c-77 -10 -141 -20 -142 -22 -1 -1 0 -19 4 -39 6 -42 8
-42 113 -27 35 5 66 8 67 6 2 -2 -21 -34 -50 -72 -71 -91 -90 -130 -91 -186
-3 -169 267 -179 300 -10 l7 32 -45 0 c-41 0 -45 -2 -57 -35 -20 -57 -88 -61
-111 -6 -15 38 1 76 74 166 62 77 93 134 98 180 2 20 -2 30 -12 31 -8 1 -78
-7 -155 -18z"/>
<path d="M3180 1732 c-44 -25 -69 -58 -81 -111 -26 -116 78 -224 170 -176 l32
16 -7 -28 c-11 -46 -33 -81 -54 -88 -31 -10 -59 4 -66 31 -5 21 -12 24 -51 24
l-45 0 6 -32 c13 -66 94 -116 164 -102 17 4 49 22 71 41 57 48 84 139 80 257
-4 90 -17 119 -71 159 -38 28 -105 32 -148 9z m110 -89 c41 -52 9 -143 -50
-143 -38 0 -55 25 -55 80 0 83 61 119 105 63z"/>
</g>
</svg>
